<svg width="15" height="15" viewBox="0 0 15 15" fill="none" xmlns="http://www.w3.org/2000/svg">
<path d="M7.50002 10.5C7.06252 10.5 6.62502 10.3312 6.29377 9.99999L2.21877 5.92499C2.13159 5.83678 2.0827 5.71776 2.0827 5.59374C2.0827 5.46972 2.13159 5.35071 2.21877 5.26249C2.40002 5.08124 2.70002 5.08124 2.88127 5.26249L6.95627 9.33749C7.25627 9.63749 7.74377 9.63749 8.04377 9.33749L12.1188 5.26249C12.3 5.08124 12.6 5.08124 12.7813 5.26249C12.9625 5.44374 12.9625 5.74374 12.7813 5.92499L8.70627 9.99999C8.37502 10.3312 7.93752 10.5 7.50002 10.5Z" fill="#D9D9D9"/>
</svg>
